<svg width="24" height="114" viewBox="0 0 24 114" fill="none" xmlns="http://www.w3.org/2000/svg">
<path d="M7.61781 91.9283C3.81701 94.1159 1.01621 102.856 3.41861 107.908C5.91861 113.1 11.6178 115.421 15.8166 113.1C16.0158 113.1 16.3166 112.961 16.5158 112.689C16.715 112.55 16.9143 112.278 17.0158 112.145C20.215 108.458 21.6174 101.9 19.5158 96.5759C17.5158 91.2457 11.3166 89.7406 7.61781 91.9283ZM6.81703 105.859C4.91863 102.717 7.31703 96.9808 9.71543 96.1591C11.5162 95.4761 15.1138 96.1591 16.317 98.4801C17.817 101.484 16.7155 106.403 14.7154 108.314C12.317 110.096 8.51623 108.73 6.81703 105.859Z" fill="#CFFF69"/>
<path d="M21.5158 6.28652C19.3166 1.09494 14.8166 -0.95394 10.7148 0.411979C5.51559 2.18877 2.31639 9.15168 1.11319 15.8482C-0.586015 25.4097 0.0115855 36.1977 0.613185 45.8985C0.913965 51.5009 1.41397 56.9646 1.91399 62.5613C2.31243 67.2032 2.31243 72.5336 3.51559 76.9034C5.01559 82.3671 9.11719 84.8269 13.2148 83.3222C18.414 81.4121 21.414 74.7158 22.1132 67.8859V67.6138C22.1132 67.4751 22.1132 67.3417 22.2147 67.203C23.0155 55.7314 23.5155 44.2542 23.6131 32.7832C23.5155 24.7264 24.6174 13.5259 21.5158 6.28652ZM6.21479 70.2129C5.61323 64.3384 5.11319 58.3305 4.61319 52.3166C3.71475 40.5675 2.11319 25.6812 5.21475 14.482C7.01555 7.92453 14.4139 -0.271254 18.4137 8.74627C20.6129 13.9379 19.9137 21.7225 19.9137 27.458C19.9137 40.573 19.4137 53.8216 18.5153 66.9303C17.3161 76.7638 7.71435 85.2364 6.21435 70.2117L6.21479 70.2129Z" fill="#CFFF69"/>
</svg>
